solid ascii
  facet normal -7.071068e-001 0.000000e+000 7.071068e-001
    outer loop
      vertex   -8.150000e+001 2.200000e+001 2.000000e+000
      vertex   -8.150000e+001 5.800000e+001 2.000000e+000
      vertex   -8.300000e+001 2.050000e+001 5.000000e-001
    endloop
  endfacet
  facet normal -7.071068e-001 0.000000e+000 7.071068e-001
    outer loop
      vertex   -8.300000e+001 2.050000e+001 5.000000e-001
      vertex   -8.150000e+001 5.800000e+001 2.000000e+000
      vertex   -8.300000e+001 5.950000e+001 5.000000e-001
    endloop
  endfacet
  facet normal 0.000000e+000 0.000000e+000 1.000000e+000
    outer loop
      vertex   -3.794684e+001 2.439604e+001 2.000000e+000
      vertex   -7.794684e+001 2.439604e+001 2.000000e+000
      vertex   -8.150000e+001 2.200000e+001 2.000000e+000
    endloop
  endfacet
  facet normal 0.000000e+000 0.000000e+000 1.000000e+000
    outer loop
      vertex   -2.850000e+001 2.200000e+001 2.000000e+000
      vertex   -3.794684e+001 2.439604e+001 2.000000e+000
      vertex   -8.150000e+001 2.200000e+001 2.000000e+000
    endloop
  endfacet
  facet normal 0.000000e+000 0.000000e+000 1.000000e+000
    outer loop
      vertex   -2.850000e+001 2.200000e+001 2.000000e+000
      vertex   -3.794684e+001 5.539604e+001 2.000000e+000
      vertex   -3.794684e+001 2.439604e+001 2.000000e+000
    endloop
  endfacet
  facet normal 0.000000e+000 -0.000000e+000 1.000000e+000
    outer loop
      vertex   -2.850000e+001 2.200000e+001 2.000000e+000
      vertex   -2.850000e+001 5.800000e+001 2.000000e+000
      vertex   -3.794684e+001 5.539604e+001 2.000000e+000
    endloop
  endfacet
  facet normal 0.000000e+000 -0.000000e+000 1.000000e+000
    outer loop
      vertex   -3.794684e+001 5.539604e+001 2.000000e+000
      vertex   -2.850000e+001 5.800000e+001 2.000000e+000
      vertex   -8.150000e+001 5.800000e+001 2.000000e+000
    endloop
  endfacet
  facet normal 0.000000e+000 0.000000e+000 1.000000e+000
    outer loop
      vertex   -7.794684e+001 5.539604e+001 2.000000e+000
      vertex   -8.150000e+001 5.800000e+001 2.000000e+000
      vertex   -8.150000e+001 2.200000e+001 2.000000e+000
    endloop
  endfacet
  facet normal 0.000000e+000 -0.000000e+000 1.000000e+000
    outer loop
      vertex   -7.794684e+001 2.439604e+001 2.000000e+000
      vertex   -7.794684e+001 5.539604e+001 2.000000e+000
      vertex   -8.150000e+001 2.200000e+001 2.000000e+000
    endloop
  endfacet
  facet normal 0.000000e+000 -0.000000e+000 1.000000e+000
    outer loop
      vertex   -7.794684e+001 5.539604e+001 2.000000e+000
      vertex   -3.794684e+001 5.539604e+001 2.000000e+000
      vertex   -8.150000e+001 5.800000e+001 2.000000e+000
    endloop
  endfacet
  facet normal 0.000000e+000 -7.071068e-001 7.071068e-001
    outer loop
      vertex   -8.300000e+001 2.050000e+001 5.000000e-001
      vertex   -2.700000e+001 2.050000e+001 5.000000e-001
      vertex   -8.150000e+001 2.200000e+001 2.000000e+000
    endloop
  endfacet
  facet normal 0.000000e+000 -7.071068e-001 7.071068e-001
    outer loop
      vertex   -8.150000e+001 2.200000e+001 2.000000e+000
      vertex   -2.700000e+001 2.050000e+001 5.000000e-001
      vertex   -2.850000e+001 2.200000e+001 2.000000e+000
    endloop
  endfacet
  facet normal 7.071068e-001 0.000000e+000 7.071068e-001
    outer loop
      vertex   -2.850000e+001 2.200000e+001 2.000000e+000
      vertex   -2.700000e+001 2.050000e+001 5.000000e-001
      vertex   -2.850000e+001 5.800000e+001 2.000000e+000
    endloop
  endfacet
  facet normal 7.071068e-001 -0.000000e+000 7.071068e-001
    outer loop
      vertex   -2.850000e+001 5.800000e+001 2.000000e+000
      vertex   -2.700000e+001 2.050000e+001 5.000000e-001
      vertex   -2.700000e+001 5.950000e+001 5.000000e-001
    endloop
  endfacet
  facet normal -0.000000e+000 7.071068e-001 7.071068e-001
    outer loop
      vertex   -8.150000e+001 5.800000e+001 2.000000e+000
      vertex   -2.850000e+001 5.800000e+001 2.000000e+000
      vertex   -8.300000e+001 5.950000e+001 5.000000e-001
    endloop
  endfacet
  facet normal 0.000000e+000 7.071068e-001 7.071068e-001
    outer loop
      vertex   -8.300000e+001 5.950000e+001 5.000000e-001
      vertex   -2.850000e+001 5.800000e+001 2.000000e+000
      vertex   -2.700000e+001 5.950000e+001 5.000000e-001
    endloop
  endfacet
  facet normal 1.000000e+000 0.000000e+000 0.000000e+000
    outer loop
      vertex   -2.700000e+001 5.950000e+001 5.000000e-001
      vertex   -2.700000e+001 2.050000e+001 5.000000e-001
      vertex   -2.700000e+001 5.950000e+001 0.000000e+000
    endloop
  endfacet
  facet normal 1.000000e+000 0.000000e+000 0.000000e+000
    outer loop
      vertex   -2.700000e+001 5.950000e+001 0.000000e+000
      vertex   -2.700000e+001 2.050000e+001 5.000000e-001
      vertex   -2.700000e+001 2.050000e+001 0.000000e+000
    endloop
  endfacet
  facet normal 0.000000e+000 7.071068e-001 7.071068e-001
    outer loop
      vertex   -3.894684e+001 2.539604e+001 1.000000e+000
      vertex   -7.694684e+001 2.539604e+001 1.000000e+000
      vertex   -3.794684e+001 2.439604e+001 2.000000e+000
    endloop
  endfacet
  facet normal 0.000000e+000 7.071068e-001 7.071068e-001
    outer loop
      vertex   -3.794684e+001 2.439604e+001 2.000000e+000
      vertex   -7.694684e+001 2.539604e+001 1.000000e+000
      vertex   -7.794684e+001 2.439604e+001 2.000000e+000
    endloop
  endfacet
  facet normal -0.000000e+000 1.000000e+000 0.000000e+000
    outer loop
      vertex   -7.694684e+001 2.539604e+001 1.000000e+000
      vertex   -3.894684e+001 2.539604e+001 1.000000e+000
      vertex   -7.694684e+001 2.539604e+001 2.980232e-008
    endloop
  endfacet
  facet normal -0.000000e+000 1.000000e+000 0.000000e+000
    outer loop
      vertex   -7.694684e+001 2.539604e+001 2.980232e-008
      vertex   -3.894684e+001 2.539604e+001 1.000000e+000
      vertex   -3.894684e+001 2.539604e+001 2.980232e-008
    endloop
  endfacet
  facet normal -7.071068e-001 0.000000e+000 7.071068e-001
    outer loop
      vertex   -3.794684e+001 5.539604e+001 2.000000e+000
      vertex   -3.894684e+001 5.439604e+001 1.000000e+000
      vertex   -3.794684e+001 2.439604e+001 2.000000e+000
    endloop
  endfacet
  facet normal -7.071068e-001 0.000000e+000 7.071068e-001
    outer loop
      vertex   -3.794684e+001 2.439604e+001 2.000000e+000
      vertex   -3.894684e+001 5.439604e+001 1.000000e+000
      vertex   -3.894684e+001 2.539604e+001 1.000000e+000
    endloop
  endfacet
  facet normal -1.000000e+000 0.000000e+000 -0.000000e+000
    outer loop
      vertex   -3.894684e+001 2.539604e+001 1.000000e+000
      vertex   -3.894684e+001 5.439604e+001 1.000000e+000
      vertex   -3.894684e+001 2.539604e+001 2.980232e-008
    endloop
  endfacet
  facet normal -1.000000e+000 0.000000e+000 0.000000e+000
    outer loop
      vertex   -3.894684e+001 2.539604e+001 2.980232e-008
      vertex   -3.894684e+001 5.439604e+001 1.000000e+000
      vertex   -3.894684e+001 5.439604e+001 2.980232e-008
    endloop
  endfacet
  facet normal 0.000000e+000 -7.071068e-001 7.071068e-001
    outer loop
      vertex   -7.694684e+001 5.439604e+001 1.000000e+000
      vertex   -3.894684e+001 5.439604e+001 1.000000e+000
      vertex   -7.794684e+001 5.539604e+001 2.000000e+000
    endloop
  endfacet
  facet normal 0.000000e+000 -7.071068e-001 7.071068e-001
    outer loop
      vertex   -7.794684e+001 5.539604e+001 2.000000e+000
      vertex   -3.894684e+001 5.439604e+001 1.000000e+000
      vertex   -3.794684e+001 5.539604e+001 2.000000e+000
    endloop
  endfacet
  facet normal -0.000000e+000 -1.000000e+000 -0.000000e+000
    outer loop
      vertex   -3.894684e+001 5.439604e+001 1.000000e+000
      vertex   -7.694684e+001 5.439604e+001 1.000000e+000
      vertex   -3.894684e+001 5.439604e+001 2.980232e-008
    endloop
  endfacet
  facet normal -0.000000e+000 -1.000000e+000 -0.000000e+000
    outer loop
      vertex   -3.894684e+001 5.439604e+001 2.980232e-008
      vertex   -7.694684e+001 5.439604e+001 1.000000e+000
      vertex   -7.694684e+001 5.439604e+001 2.980232e-008
    endloop
  endfacet
  facet normal 7.071068e-001 -0.000000e+000 7.071068e-001
    outer loop
      vertex   -7.694684e+001 2.539604e+001 1.000000e+000
      vertex   -7.694684e+001 5.439604e+001 1.000000e+000
      vertex   -7.794684e+001 2.439604e+001 2.000000e+000
    endloop
  endfacet
  facet normal 7.071068e-001 0.000000e+000 7.071068e-001
    outer loop
      vertex   -7.794684e+001 2.439604e+001 2.000000e+000
      vertex   -7.694684e+001 5.439604e+001 1.000000e+000
      vertex   -7.794684e+001 5.539604e+001 2.000000e+000
    endloop
  endfacet
  facet normal 1.000000e+000 0.000000e+000 0.000000e+000
    outer loop
      vertex   -7.694684e+001 5.439604e+001 1.000000e+000
      vertex   -7.694684e+001 2.539604e+001 1.000000e+000
      vertex   -7.694684e+001 5.439604e+001 2.980232e-008
    endloop
  endfacet
  facet normal 1.000000e+000 0.000000e+000 0.000000e+000
    outer loop
      vertex   -7.694684e+001 5.439604e+001 2.980232e-008
      vertex   -7.694684e+001 2.539604e+001 1.000000e+000
      vertex   -7.694684e+001 2.539604e+001 2.980232e-008
    endloop
  endfacet
  facet normal 4.923432e-009 0.000000e+000 -1.000000e+000
    outer loop
      vertex   -7.694684e+001 5.439604e+001 2.980232e-008
      vertex   -7.694684e+001 2.539604e+001 2.980232e-008
      vertex   -8.300000e+001 2.050000e+001 0.000000e+000
    endloop
  endfacet
  facet normal 4.923432e-009 0.000000e+000 -1.000000e+000
    outer loop
      vertex   -8.300000e+001 5.950000e+001 0.000000e+000
      vertex   -7.694684e+001 5.439604e+001 2.980232e-008
      vertex   -8.300000e+001 2.050000e+001 0.000000e+000
    endloop
  endfacet
  facet normal -0.000000e+000 -5.839053e-009 -1.000000e+000
    outer loop
      vertex   -8.300000e+001 5.950000e+001 0.000000e+000
      vertex   -3.894684e+001 5.439604e+001 2.980232e-008
      vertex   -7.694684e+001 5.439604e+001 2.980232e-008
    endloop
  endfacet
  facet normal 0.000000e+000 -5.839053e-009 -1.000000e+000
    outer loop
      vertex   -8.300000e+001 5.950000e+001 0.000000e+000
      vertex   -2.700000e+001 5.950000e+001 0.000000e+000
      vertex   -3.894684e+001 5.439604e+001 2.980232e-008
    endloop
  endfacet
  facet normal -2.494578e-009 -0.000000e+000 -1.000000e+000
    outer loop
      vertex   -3.894684e+001 5.439604e+001 2.980232e-008
      vertex   -2.700000e+001 5.950000e+001 0.000000e+000
      vertex   -2.700000e+001 2.050000e+001 0.000000e+000
    endloop
  endfacet
  facet normal 0.000000e+000 6.087032e-009 -1.000000e+000
    outer loop
      vertex   -3.894684e+001 2.539604e+001 2.980232e-008
      vertex   -2.700000e+001 2.050000e+001 0.000000e+000
      vertex   -8.300000e+001 2.050000e+001 0.000000e+000
    endloop
  endfacet
  facet normal 0.000000e+000 6.087032e-009 -1.000000e+000
    outer loop
      vertex   -7.694684e+001 2.539604e+001 2.980232e-008
      vertex   -3.894684e+001 2.539604e+001 2.980232e-008
      vertex   -8.300000e+001 2.050000e+001 0.000000e+000
    endloop
  endfacet
  facet normal -2.494578e-009 0.000000e+000 -1.000000e+000
    outer loop
      vertex   -3.894684e+001 2.539604e+001 2.980232e-008
      vertex   -3.894684e+001 5.439604e+001 2.980232e-008
      vertex   -2.700000e+001 2.050000e+001 0.000000e+000
    endloop
  endfacet
  facet normal -0.000000e+000 -1.000000e+000 -0.000000e+000
    outer loop
      vertex   -2.700000e+001 2.050000e+001 5.000000e-001
      vertex   -8.300000e+001 2.050000e+001 5.000000e-001
      vertex   -2.700000e+001 2.050000e+001 0.000000e+000
    endloop
  endfacet
  facet normal -0.000000e+000 -1.000000e+000 -0.000000e+000
    outer loop
      vertex   -2.700000e+001 2.050000e+001 0.000000e+000
      vertex   -8.300000e+001 2.050000e+001 5.000000e-001
      vertex   -8.300000e+001 2.050000e+001 0.000000e+000
    endloop
  endfacet
  facet normal -1.000000e+000 0.000000e+000 -0.000000e+000
    outer loop
      vertex   -8.300000e+001 2.050000e+001 5.000000e-001
      vertex   -8.300000e+001 5.950000e+001 5.000000e-001
      vertex   -8.300000e+001 2.050000e+001 0.000000e+000
    endloop
  endfacet
  facet normal -1.000000e+000 0.000000e+000 0.000000e+000
    outer loop
      vertex   -8.300000e+001 2.050000e+001 0.000000e+000
      vertex   -8.300000e+001 5.950000e+001 5.000000e-001
      vertex   -8.300000e+001 5.950000e+001 0.000000e+000
    endloop
  endfacet
  facet normal -0.000000e+000 1.000000e+000 0.000000e+000
    outer loop
      vertex   -8.300000e+001 5.950000e+001 5.000000e-001
      vertex   -2.700000e+001 5.950000e+001 5.000000e-001
      vertex   -8.300000e+001 5.950000e+001 0.000000e+000
    endloop
  endfacet
  facet normal -0.000000e+000 1.000000e+000 0.000000e+000
    outer loop
      vertex   -8.300000e+001 5.950000e+001 0.000000e+000
      vertex   -2.700000e+001 5.950000e+001 5.000000e-001
      vertex   -2.700000e+001 5.950000e+001 0.000000e+000
    endloop
  endfacet
endsolid
