%TF.GenerationSoftware,KiCad,Pcbnew,9.0.7*%
%TF.CreationDate,2026-02-22T22:35:26+02:00*%
%TF.ProjectId,LTC_PCB-Stacked,4c54435f-5043-4422-9d53-7461636b6564,1.0*%
%TF.SameCoordinates,Original*%
%TF.FileFunction,Soldermask,Top*%
%TF.FilePolarity,Negative*%
%FSLAX46Y46*%
G04 Gerber Fmt 4.6, Leading zero omitted, Abs format (unit mm)*
G04 Created by KiCad (PCBNEW 9.0.7) date 2026-02-22 22:35:26*
%MOMM*%
%LPD*%
G01*
G04 APERTURE LIST*
G04 Aperture macros list*
%AMRoundRect*
0 Rectangle with rounded corners*
0 $1 Rounding radius*
0 $2 $3 $4 $5 $6 $7 $8 $9 X,Y pos of 4 corners*
0 Add a 4 corners polygon primitive as box body*
4,1,4,$2,$3,$4,$5,$6,$7,$8,$9,$2,$3,0*
0 Add four circle primitives for the rounded corners*
1,1,$1+$1,$2,$3*
1,1,$1+$1,$4,$5*
1,1,$1+$1,$6,$7*
1,1,$1+$1,$8,$9*
0 Add four rect primitives between the rounded corners*
20,1,$1+$1,$2,$3,$4,$5,0*
20,1,$1+$1,$4,$5,$6,$7,0*
20,1,$1+$1,$6,$7,$8,$9,0*
20,1,$1+$1,$8,$9,$2,$3,0*%
G04 Aperture macros list end*
%ADD10C,4.000000*%
%ADD11C,6.000000*%
%ADD12R,2.000000X1.200000*%
%ADD13O,2.000000X1.200000*%
%ADD14RoundRect,0.250000X-0.550000X0.550000X-0.550000X-0.550000X0.550000X-0.550000X0.550000X0.550000X0*%
%ADD15C,1.600000*%
%ADD16RoundRect,0.249999X-0.850001X0.850001X-0.850001X-0.850001X0.850001X-0.850001X0.850001X0.850001X0*%
%ADD17C,2.200000*%
%ADD18RoundRect,0.250000X0.620000X0.620000X-0.620000X0.620000X-0.620000X-0.620000X0.620000X-0.620000X0*%
%ADD19C,1.740000*%
%ADD20RoundRect,0.250000X-0.845000X0.620000X-0.845000X-0.620000X0.845000X-0.620000X0.845000X0.620000X0*%
%ADD21O,2.190000X1.740000*%
%ADD22R,4.000000X4.000000*%
%ADD23C,4.500000*%
%ADD24R,1.700000X1.700000*%
%ADD25O,1.700000X1.700000*%
%ADD26C,2.540000*%
%ADD27RoundRect,0.250000X0.845000X-0.620000X0.845000X0.620000X-0.845000X0.620000X-0.845000X-0.620000X0*%
G04 APERTURE END LIST*
D10*
%TO.C,DISP1*%
X86692597Y-63768347D03*
X86692597Y-113768347D03*
X124835251Y-46499216D03*
X174835251Y-46499216D03*
X174835251Y-131499216D03*
X211692597Y-63768347D03*
X211692597Y-113768347D03*
D11*
X84192597Y-133768347D03*
X84192597Y-43768347D03*
X214192597Y-43768347D03*
X214192597Y-133768347D03*
%TD*%
D12*
%TO.C,U1*%
X148019071Y-134716496D03*
D13*
X148019071Y-132176496D03*
X148019071Y-129636496D03*
X148019071Y-127096496D03*
X148019071Y-124556496D03*
X148019071Y-122016496D03*
X148019071Y-119476496D03*
X148019071Y-116936496D03*
X148019071Y-114396496D03*
X148019071Y-111856496D03*
X148019071Y-109316496D03*
X148019071Y-106776496D03*
X148019071Y-104236496D03*
X148019071Y-101696496D03*
X148019071Y-99156496D03*
X148019071Y-96616496D03*
X148019071Y-94076496D03*
X148019071Y-91536496D03*
X148019071Y-88996496D03*
X148022751Y-86459216D03*
X148022751Y-83919216D03*
X148022751Y-81379216D03*
X125159071Y-81376496D03*
X125159071Y-83916496D03*
X125159071Y-86456496D03*
X125159071Y-88996496D03*
X125159071Y-91536496D03*
X125159071Y-94076496D03*
X125159071Y-96616496D03*
X125159071Y-99156496D03*
X125159071Y-101696496D03*
X125159071Y-104236496D03*
X125159071Y-106776496D03*
X125159071Y-109316496D03*
X125159071Y-111856496D03*
X125159071Y-114396496D03*
X125159071Y-116936496D03*
X125159071Y-119476496D03*
X125159071Y-122016496D03*
X125159071Y-124556496D03*
X125159071Y-127096496D03*
X125159071Y-129636496D03*
X125159071Y-132176496D03*
X125159071Y-134716496D03*
%TD*%
D14*
%TO.C,C3*%
X162535251Y-129639216D03*
D15*
X162535251Y-134639216D03*
%TD*%
D16*
%TO.C,D2*%
X102845251Y-114399216D03*
D17*
X102845251Y-124559216D03*
%TD*%
D18*
%TO.C,J1*%
X194285251Y-43279216D03*
D19*
X191745251Y-43279216D03*
X189205251Y-43279216D03*
X186665251Y-43279216D03*
X184125251Y-43279216D03*
%TD*%
D20*
%TO.C,J5*%
X95225251Y-118209216D03*
D21*
X95225251Y-120749216D03*
%TD*%
D16*
%TO.C,D1*%
X102845251Y-50899216D03*
D17*
X102845251Y-61059216D03*
%TD*%
D15*
%TO.C,C2*%
X154915251Y-129639216D03*
X154915251Y-134639216D03*
%TD*%
D22*
%TO.C,B2*%
X154280251Y-98059216D03*
D10*
X154280251Y-61229216D03*
X180315251Y-61229216D03*
X180315251Y-98059216D03*
%TD*%
D22*
%TO.C,B1*%
X80620251Y-108049216D03*
D10*
X80620251Y-71219216D03*
X106655251Y-71219216D03*
X106655251Y-108049216D03*
%TD*%
D15*
%TO.C,C1*%
X181625251Y-110589216D03*
X186625251Y-110589216D03*
%TD*%
D23*
%TO.C,MOD1*%
X185720251Y-103839216D03*
X185720251Y-59069216D03*
X119355251Y-104089216D03*
X119355251Y-59069216D03*
D24*
X168885251Y-102799216D03*
D25*
X171425251Y-102799216D03*
X173965251Y-102799216D03*
X176505251Y-102799216D03*
X179045251Y-102799216D03*
X181585251Y-102819216D03*
D26*
X180315251Y-51999216D03*
X175235251Y-51999216D03*
X170155251Y-51999216D03*
X165075251Y-51999216D03*
X159995251Y-51999216D03*
X154915251Y-51999216D03*
X129515251Y-51999216D03*
X124435251Y-51999216D03*
%TD*%
D15*
%TO.C,R1*%
X170155251Y-124559216D03*
X154915251Y-124559216D03*
%TD*%
D18*
%TO.C,J2*%
X166345251Y-43279216D03*
D19*
X163805251Y-43279216D03*
X161265251Y-43279216D03*
X158725251Y-43279216D03*
X156185251Y-43279216D03*
%TD*%
D18*
%TO.C,J3*%
X143485251Y-43279216D03*
D19*
X140945251Y-43279216D03*
X138405251Y-43279216D03*
X135865251Y-43279216D03*
X133325251Y-43279216D03*
%TD*%
D27*
%TO.C,J6*%
X212065251Y-90269216D03*
D21*
X212065251Y-87729216D03*
X212065251Y-85189216D03*
%TD*%
D18*
%TO.C,J4*%
X115545251Y-43279216D03*
D19*
X113005251Y-43279216D03*
X110465251Y-43279216D03*
X107925251Y-43279216D03*
X105385251Y-43279216D03*
%TD*%
D23*
%TO.C,U2*%
X110745251Y-64479216D03*
X110745251Y-113519216D03*
X194045251Y-64479216D03*
X194045251Y-113519216D03*
D24*
X195555251Y-72489216D03*
D25*
X195555251Y-75029216D03*
X195555251Y-77569216D03*
X195555251Y-80109216D03*
X195555251Y-82649216D03*
X195555251Y-85189216D03*
X195555251Y-87729216D03*
X195555251Y-90269216D03*
X195555251Y-92809216D03*
X195555251Y-95349216D03*
X195555251Y-97889216D03*
X195555251Y-100429216D03*
X195555251Y-102969216D03*
X195555251Y-105509216D03*
D24*
X111255251Y-85189216D03*
D25*
X111255251Y-87729216D03*
X111255251Y-90269216D03*
X111255251Y-92809216D03*
%TD*%
M02*
