M48
; DRILL file {KiCad 9.0.7} date 2026-02-22T22:35:30+0200
; FORMAT={-:-/ absolute / metric / decimal}
; #@! TF.CreationDate,2026-02-22T22:35:30+02:00
; #@! TF.GenerationSoftware,Kicad,Pcbnew,9.0.7
; #@! TF.FileFunction,Plated,1,2,PTH
FMAT,2
METRIC
; #@! TA.AperFunction,Plated,PTH,ComponentDrill
T1C0.800
; #@! TA.AperFunction,Plated,PTH,ComponentDrill
T2C1.000
; #@! TA.AperFunction,Plated,PTH,ComponentDrill
T3C1.2
%
G90
G05
T1
X125.159Y-81.376
X125.159Y-83.916
X125.159Y-86.456
X125.159Y-88.996
X125.159Y-91.536
X125.159Y-94.076
X125.159Y-96.616
X125.159Y-99.156
X125.159Y-101.696
X125.159Y-104.236
X125.159Y-106.776
X125.159Y-109.316
X125.159Y-111.856
X125.159Y-114.396
X125.159Y-116.936
X125.159Y-119.476
X125.159Y-122.016
X125.159Y-124.556
X125.159Y-127.096
X125.159Y-129.636
X125.159Y-132.176
X125.159Y-134.716
X148.019Y-88.996
X148.019Y-91.536
X148.019Y-94.076
X148.019Y-96.616
X148.019Y-99.156
X148.019Y-101.696
X148.019Y-104.236
X148.019Y-106.776
X148.019Y-109.316
X148.019Y-111.856
X148.019Y-114.396
X148.019Y-116.936
X148.019Y-119.476
X148.019Y-122.016
X148.019Y-124.556
X148.019Y-127.096
X148.019Y-129.636
X148.019Y-132.176
X148.019Y-134.716
X148.023Y-81.379
X148.023Y-83.919
X148.023Y-86.459
X154.915Y-124.559
X154.915Y-129.639
X154.915Y-134.639
X162.535Y-129.639
X162.535Y-134.639
X170.155Y-124.559
X181.625Y-110.589
X186.625Y-110.589
T2
X80.62Y-71.219
X80.62Y-108.049
X84.193Y-43.768
X84.193Y-133.768
X106.655Y-71.219
X106.655Y-108.049
X111.255Y-85.189
X111.255Y-87.729
X111.255Y-90.269
X111.255Y-92.809
X124.435Y-51.999
X129.515Y-51.999
X154.28Y-61.229
X154.28Y-98.059
X154.915Y-51.999
X159.995Y-51.999
X165.075Y-51.999
X168.885Y-102.799
X170.155Y-51.999
X171.425Y-102.799
X173.965Y-102.799
X175.235Y-51.999
X176.505Y-102.799
X179.045Y-102.799
X180.315Y-51.999
X180.315Y-61.229
X180.315Y-98.059
X181.585Y-102.819
X195.555Y-72.489
X195.555Y-75.029
X195.555Y-77.569
X195.555Y-80.109
X195.555Y-82.649
X195.555Y-85.189
X195.555Y-87.729
X195.555Y-90.269
X195.555Y-92.809
X195.555Y-95.349
X195.555Y-97.889
X195.555Y-100.429
X195.555Y-102.969
X195.555Y-105.509
X214.193Y-43.768
X214.193Y-133.768
X105.385Y-43.279
X107.925Y-43.279
X110.465Y-43.279
X113.005Y-43.279
X115.545Y-43.279
X133.325Y-43.279
X135.865Y-43.279
X138.405Y-43.279
X140.945Y-43.279
X143.485Y-43.279
X156.185Y-43.279
X158.725Y-43.279
X161.265Y-43.279
X163.805Y-43.279
X166.345Y-43.279
X184.125Y-43.279
X186.665Y-43.279
X189.205Y-43.279
X191.745Y-43.279
X194.285Y-43.279
X102.845Y-50.899
X102.845Y-61.059
X102.845Y-114.399
X102.845Y-124.559
T3
X95.225Y-118.209
X95.225Y-120.749
X212.065Y-85.189
X212.065Y-87.729
X212.065Y-90.269
M30
